# xmcd CD database file
#
# Track frame offsets:
#	150
#	14895
#	31045
#	48887
#	66150
#	77165
#	85915
#	97490
#	118407
#	127207
#	146985
#	156522
#	173150
#	191050
#	206655
#	220400
#	234480
#	244240
#	255465
#	265650
#	281737
#	301560
#	318432
#
# Disc length: 4408 seconds
#
# Revision: 0
# Processed by: cddbd v1.5.2PL0 Copyright (c) Steve Scherf et al.
# Submitted via: CDex 1.51
#
DISCID=62113617
DTITLE=The Black Albinos - Play El Cholico
DYEAR=2002
DGENRE=Country
TTITLE0=Driving guitars
TTITLE1=Obsession
TTITLE2=Ghetto Blaster
TTITLE3=Adios
TTITLE4=Rarity break
TTITLE5=The Sting
TTITLE6=My Prayer
TTITLE7=El Cholico
TTITLE8=Rap city
TTITLE9=Ebony
TTITLE10=Panhandle rag
TTITLE11=The wick wickercha cha
TTITLE12=Caravan
TTITLE13=Rincon
TTITLE14=Innovation
TTITLE15=It's party time
TTITLE16=Anitra's dance
TTITLE17=Rio bravo
TTITLE18=Walk don't run
TTITLE19=Bolero gonzales
TTITLE20=Red cloud
TTITLE21=Spanish Fly
TTITLE22=Pin up girl
EXTD=YEAR: 2002
EXTT0=
EXTT1=
EXTT2=
EXTT3=
EXTT4=
EXTT5=
EXTT6=
EXTT7=
EXTT8=
EXTT9=
EXTT10=
EXTT11=
EXTT12=
EXTT13=
EXTT14=
EXTT15=
EXTT16=
EXTT17=
EXTT18=
EXTT19=
EXTT20=
EXTT21=
EXTT22=
PLAYORDER=
